<?xml version="1.0" encoding="utf-8"?>
<!-- Generator: Adobe Illustrator 19.1.0, SVG Export Plug-In . SVG Version: 6.00 Build 0)  -->
<svg version="1.1" id="Wells_Fargo" xmlns="http://www.w3.org/2000/svg" xmlns:xlink="http://www.w3.org/1999/xlink" x="0px"
	 y="0px" viewBox="-382 271.947998 193.6519928 18.052" style="enable-background:new -382 271.947998 193.6519928 18.052;"
	 xml:space="preserve">
<style type="text/css">
	.st0{fill:#FCC60A;}
</style>
<g>
	<g>
		<path class="st0" d="M-349.7390137,274.3599854v5.3470154h1.2180176c1.5440063,0,2.2420044-0.7520142,2.2420044-2.8450012
			v-0.3330078h1.802002v8.2929993h-1.802002v-0.3540039c0-2.0849915-0.697998-2.8710022-2.2420044-2.8710022h-1.2180176v5.9650269
			h5.1260071c2.32901,0,3.178009-1.5310059,3.4580078-4.4860229h1.8589783v6.3959961h-16.8379822v-1.9079895h1.4289856
			c0.882019,0,1.3569946-0.2409973,1.3569946-1.7839966v-9.9590149c0-1.1129761-0.5099792-1.4579773-1.6989746-1.4579773h-0.5209961
			c-1.2190247,0-1.8060303,0.2890015-2.2290039,1.5669861l-4.6459961,13.5429993h-3.5310059l-2.6879883-8.8299866h-0.053009
			l-2.9880066,8.8299866h-3.5740051l-4.8190002-14.1990051c-0.2139893-0.6959839-0.5759888-0.9119873-1.5499878-0.9119873
			c-0.0090027,0-0.3359985,0-0.3540039,0v-1.8930054h7.4329834v1.8930054h-1.0839844
			c-0.5559998,0-0.7929993,0.3450012-0.7929993,0.6789856c0,0.2530212,0.0979919,0.5720215,0.2369995,0.9260254l3.2149963,9.4849854
			h0.053009l3.0690002-8.9219971l-0.434021-1.2120056c-0.2589722-0.7550049-0.776001-0.9559937-1.5209961-0.9559937h-0.6139832
			v-1.8930054h7.6829834v1.8930054h-1.355011c-0.5249939,0-0.723999,0.2369995-0.723999,0.5700073
			c0,0.2569885,0.1280212,0.6259766,0.2130127,0.8670044l2.8139954,9.4849854h0.0469971l3.2709961-9.2640076
			c0.1040039-0.3039856,0.197998-0.5579834,0.197998-0.8779907c0-0.4020081-0.2009888-0.7810059-1.098999-0.7810059h-1.2359924
			v-1.8930054h23.3330078v5.8180237l-1.9140015-0.0020142c-0.3860168-2.4630127-0.6060181-3.9230042-4.0180054-3.9230042
			L-349.7390137,274.3599854L-349.7390137,274.3599854z M-321.776001,289.4710083v-6.3959961h-1.9649963
			c-0.2630005,2.9279785-0.7969971,4.4869995-3.4530029,4.4869995h-3.868988v-12.0200195
			c0-0.9369812,0.3840027-1.1829834,1.5149841-1.1829834h1.4380188v-1.8930054h-9.3990173v1.8930054h1.4859924
			c1.0280151,0,1.3720093,0.3450012,1.3720093,1.1159973v10.9539795c0,0.8919983-0.4909973,1.1330261-1.2160034,1.1330261
			h-1.6430054v1.9079895L-321.776001,289.4710083L-321.776001,289.4710083z M-304.3169861,289.4710083v-6.3959961h-1.9689941
			c-0.2630005,2.9279785-0.8110046,4.4869995-3.4450073,4.4869995h-3.8739929v-12.0200195
			c0-0.9369812,0.3869934-1.1829834,1.5169983-1.1829834h1.4369812v-1.8930054h-9.4089966v1.8930054h1.4900208
			c1.0319824,0,1.3769836,0.3450012,1.3769836,1.1159973v10.9539795c0,0.8919983-0.4920044,1.1330261-1.2089844,1.1330261h-1.65802
			v1.9079895L-304.3169861,289.4710083L-304.3169861,289.4710083z M-291.3680115,273.7510071
			c-0.1569824-0.1620178-1.723999-1.7850037-4.7919922-1.7850037c-3.2070007,0-6.4519958,1.6229858-6.4519958,5.1109924
			c0,3.1589966,2.5200195,4.6029968,5.4219971,5.2210083c0.9620056,0.2089844,1.5290222,0.3169861,2.40802,0.5
			c2.1739807,0.4609985,3.6229858,1.1220093,3.6229858,2.6289978c0,1.1419983-1.2070007,2.3800049-3.6139832,2.3800049
			c-3.3580017,0-5.3450012-1.8720093-5.7619934-4.730011h-1.9649963v6.3959961h1.7399902l0.5670166-1.526001
			c0.4100037,0.3590088,2.0529785,2.0379944,5.1619873,2.0379944c3.9570007,0,6.9530029-1.7709961,6.9530029-5.2479858
			c0-3.3670044-2.7929993-4.8150024-6.2009888-5.4970093c-0.6010132-0.1560059-1.1600037-0.25-1.7810059-0.3880005
			c-2.1190186-0.4530029-3.4750061-0.9819946-3.4750061-2.4949951c0-1.3150024,1.394989-2.2179871,3.4799805-2.2179871
			c3.1419983,0,4.3569946,2,5.0079956,4.1470032h1.9140015v-5.8160095h-1.3869934L-291.3680115,273.7510071z"/>
		<path class="st0" d="M-269.7869873,289.4769897v-1.9119873h-1.2850037c-1.1870117,0-1.625-0.3569946-1.625-1.3139954v-4.6369934
			h1.0509949c1.5979919,0,2.2929993,0.6919861,2.2929993,2.4979858v0.5620117h1.7829895v-7.8240051h-1.7829895v0.3359985
			c0,1.3150024-0.4880066,2.5339966-2.1410217,2.5339966h-1.2030029v-5.3580017h3.3540039
			c3.7660217,0,4.1620178,1.8930054,4.4140015,3.9140015h1.8399963v-5.8120117h-16.1069946v1.8980103h1.7010193
			c0.7709961,0,1.196991,0.3439941,1.196991,0.9639893v10.9820251c0,0.7200012-0.3849792,1.2590027-1.2969971,1.2590027h-1.6019897
			v1.9119873L-269.7869873,289.4769897L-269.7869873,289.4769897z M-198.5410156,271.9490051
			c-5.5820007,0-9.2730103,3.9079895-9.2730103,9.0149841c0,5.1080017,3.6910095,9.0360107,9.2730103,9.0360107
			c5.5620117,0,9.2659912-3.928009,9.2659912-9.0360107S-192.9790039,271.9490051-198.5410156,271.9490051z M-198.5410156,273.95401
			c4.0299988,0,5.2369995,3.3499756,5.2369995,7.0099792c0,3.6670227-1.2070007,7.0180054-5.2369995,7.0180054
			c-4.0499878,0-5.2529907-3.3509827-5.2529907-7.0180054C-203.7929993,277.3039856-202.5950012,273.95401-198.5410156,273.95401z
			 M-214.2390137,273.8559875c-0.3670044-0.3309937-1.9649963-1.9079895-5.1109924-1.9079895
			c-5.0310059,0-8.190979,3.8380127-8.190979,9.0150146c0,5.2269897,3.2109985,9.0379944,8.190979,9.0379944
			c3.2070007,0,4.9450073-1.4630127,5.3359985-1.822998l0.9570007,1.2999878h1.743988v-5.9029846
			c0-0.9960022,0.375-1.2690125,1.3670044-1.2690125h0.4729919v-1.9039917h-7.8609924v1.9039917h1.1619873
			c0.8479919,0,1.3630066,0.3789978,1.3630066,1.2059937V284.5c0,1.9490051-1.2009888,3.3089905-3.8029785,3.3089905
			c-3.2690125,0-4.9020081-2.9379883-4.9020081-6.8450012c0-3.8459778,1.6390076-6.8009949,4.8009949-6.8009949
			c3.2969971,0,4.4179993,3.0760193,4.7950134,4.1109924h2.1130066v-5.8119812h-1.7969971L-214.2390137,273.8559875z
			 M-228.3890076,285.4779968v0.4649963c0,2.9370117-1.4039917,4.0580139-3.5289917,4.0580139
			c-2.4860229,0-3.3220215-1.1889954-3.3220215-3.506012c0-0.0299988,0-0.8729858,0-0.8899841
			c0-2.9200134-1.25-4.1029968-4.0979919-4.1029968h-1.3500061v5.1429749c0,0.678009,0.3139954,0.9200134,1.0570068,0.9200134
			h1.868988v1.9119873h-16.993988v-1.9119873h1.8930054c0.5209961,0,0.7089844-0.125,0.7089844-0.4379883
			c0-0.1560059-0.0449829-0.4120178-0.1459961-0.6950073c-0.0899963-0.2290039-0.8959961-2.4219971-0.8959961-2.4219971h-6.0700073
			c0,0-0.743988,2.0329895-0.8769836,2.3609924c-0.0859985,0.2539978-0.1459961,0.4649963-0.1459961,0.7129822
			c0,0.3610229,0.3009949,0.4790039,0.8049927,0.4790039h1.8079834v1.9120178h-8.0079956v-1.9100037
			c1.3540039,0,2.2170105-0.1910095,2.697998-1.3860168l5.4250183-13.71698h3.2689819l5.559021,13.71698
			c0.4689941,1.2080078,1.34198,1.3860168,2.696991,1.3860168h0.6920166c0.7309875,0,1.0650024-0.2420044,1.0650024-0.9200134
			v-11.3619995c0-0.6809998-0.2640076-0.9230042-1.0650024-0.9230042h-1.7820129v-1.8979797h11.1759949
			c3.7130127,0,5.4550171,1.7539978,5.4550171,4.4129944c0,3.2919922-3.2810059,3.9400024-4.8160095,4.0239868v0.0390015
			c1.7950134,0.1390076,3.3139954,0.8829956,3.3139954,3.4960022c0,0.0469971,0,0.9430237,0,0.9990234
			c0,1.7449951,0.3680115,2.1279907,0.9890137,2.1279907c0.6059875,0,0.9289856-0.4769897,0.9289856-1.6180115v-0.4649963
			C-230.07901,285.4779968-228.3890076,285.4779968-228.3890076,285.4779968z M-253.894989,282.1210022l-2.2929993-6.1870117
			h-0.0740051l-2.2969971,6.1870117H-253.894989z M-234.0769958,276.9779968c0-1.4889832-1.0679932-2.6180115-3.4490051-2.6180115
			h-3.1620178v5.2490234h3.1620178C-235.3299866,279.6090088-234.0769958,278.6210022-234.0769958,276.9779968z"/>
	</g>
</g>
</svg>
