<?xml version="1.0" encoding="utf-8"?>
<!-- Generator: Adobe Illustrator 19.1.0, SVG Export Plug-In . SVG Version: 6.00 Build 0)  -->
<svg version="1.1" id="Wells_Fargo" xmlns="http://www.w3.org/2000/svg" xmlns:xlink="http://www.w3.org/1999/xlink" x="0px"
	 y="0px" viewBox="-429 231 100 100" style="enable-background:new -429 231 100 100;" xml:space="preserve">
<style type="text/css">
	.st0{fill:url(#SVGID_1_);}
	.st1{fill:#FCC60A;}
</style>
<linearGradient id="SVGID_1_" gradientUnits="userSpaceOnUse" x1="-597" y1="-222" x2="-497" y2="-122" gradientTransform="matrix(1 0 0 -1 168 109)">
	<stop  offset="0" style="stop-color:#79000E"/>
	<stop  offset="0.75" style="stop-color:#E61B27"/>
</linearGradient>
<rect x="-429" y="231" class="st0" width="100" height="100"/>
<path class="st1" d="M-344.6435547,269.7700195c0.8818359,0.1972656,1.4082031,0.2978516,2.2128906,0.4633789
	c1.9990234,0.421875,3.3261719,1.03125,3.3261719,2.4150391c0,1.0532227-1.1044922,2.1918945-3.3232422,2.1918945
	c-3.0791016,0-4.9101562-1.7246094-5.2880859-4.3574219h-1.8105469v5.8911133h1.6035156l0.5224609-1.4038086
	c0.3701172,0.3305664,1.8837891,1.8701172,4.7460938,1.8701172c3.6337891,0,6.3867188-1.628418,6.3867188-4.8208008
	c0-3.105957-2.5683594-4.4370117-5.6982422-5.059082c-0.5517578-0.1450195-1.0693359-0.2348633-1.6386719-0.3583984
	c-1.9453125-0.4165039-3.1953125-0.9091797-3.1953125-2.3027344c0-1.2080078,1.2832031-2.0341797,3.203125-2.0341797
	c2.8808594,0,4.0039062,1.8378906,4.5966797,3.8105469h1.7626953v-5.3510742h-1.2695312l-0.7841797,1.1787109
	c-0.1455078-0.144043-1.5888672-1.6411133-4.4042969-1.6411133c-2.9472656,0-5.9355469,1.4970703-5.9355469,4.7080383
	C-349.6308594,267.8706055-347.3134766,269.2026367-344.6435547,269.7700195z M-367.2475586,270.4829102h-1.8017578
	c-0.2426758,2.6938477-0.7324219,4.1376953-3.175293,4.1376953h-3.5546875v-11.0571289
	c0-0.8676758,0.3510742-1.0942383,1.3935547-1.0942383h1.3203125v-1.7446289h-8.6459961v1.7446289h1.3686523
	c0.9443359,0,1.2587891,0.3129883,1.2587891,1.0244141v10.0776367c0,0.8129883-0.4482422,1.0493164-1.1137695,1.0493164h-1.5136719
	v1.753418h14.4638672V270.4829102L-367.2475586,270.4829102z M-351.1943359,270.4829102h-1.8115234
	c-0.2382812,2.6938477-0.7431641,4.1376953-3.1660156,4.1376953h-3.5595703v-11.0571289
	c0-0.8676758,0.3500977-1.0942383,1.3930664-1.0942383h1.3203125v-1.7446289h-8.6513672v1.7446289h1.3696289
	c0.9492188,0,1.2646484,0.3129883,1.2646484,1.0244141v10.0776367c0,0.8129883-0.4492188,1.0493164-1.1108398,1.0493164h-1.5234375
	v1.753418h14.4750977V270.4829102z M-413.1464844,276.3740234l2.7451172-8.1230469h0.0532227l2.4711914,8.1230469h3.2495117
	l4.2670898-12.4589844c0.3925781-1.1772461,0.9296875-1.4458008,2.050293-1.4458008h0.4775391
	c1.0917969,0,1.5673828,0.3129883,1.5673828,1.3427734v9.1577148c0,1.4145508-0.4399414,1.6508789-1.2568359,1.6508789h-1.3095703
	v1.753418h15.4799805v-5.8911133h-1.7089844c-0.2587891,2.7163086-1.0380859,4.1376953-3.1796875,4.1376953h-4.7109375v-5.4921875
	h1.1186523c1.4204102,0,2.0649414,0.7246094,2.0649414,2.6425781v0.3227539h1.6503906v-7.6293945h-1.6503906v0.3066406
	c0,1.9228516-0.6445312,2.6142578-2.0649414,2.6142578h-1.1186523v-4.9160156h4.1484375
	c3.1376953,0,3.3369141,1.34375,3.6943359,3.6064453l1.7568359,0.0073242v-5.3583984h-21.4545898v1.7446289h1.1396484
	c0.824707,0,1.0107422,0.3515625,1.0107422,0.7148438c0,0.296875-0.0908203,0.534668-0.1831055,0.8134766l-3.0092773,8.5185547
	h-0.0410156l-2.5859375-8.7231445c-0.0834961-0.2192383-0.1962891-0.5668945-0.1962891-0.8051758
	c0-0.3022461,0.1796875-0.5185547,0.6611328-0.5185547h1.2485352v-1.7446289h-7.0605469v1.7446289h0.5620117
	c0.6870117,0,1.1611328,0.1855469,1.3984375,0.8798828l0.402832,1.1152344l-2.8232422,8.2075195h-0.0522461l-2.9516602-8.7255859
	c-0.1298828-0.3291016-0.2163086-0.621582-0.2163086-0.8549805c0-0.309082,0.2163086-0.6220703,0.7265625-0.6220703h0.996582
	v-1.7446289h-6.8349609l0.0161133,1.7446289c0,0,0.3041992,0,0.3144531,0c0.8930664,0,1.2231445,0.1962891,1.4208984,0.8369141
	l4.4321289,13.0678711H-413.1464844z M-345.5791016,284.6357422c-5.1308594,0-8.5214844,3.5913086-8.5214844,8.2900391
	c0,4.6982422,3.390625,8.3105469,8.5214844,8.3105469c5.1123047,0,8.5195312-3.6123047,8.5195312-8.3105469
	C-337.0595703,288.2270508-340.4667969,284.6357422-345.5791016,284.6357422z M-345.5791016,299.378418
	c-3.7216797,0-4.8232422-3.0791016-4.8232422-6.4526367c0-3.3681641,1.1015625-6.4501953,4.8232422-6.4501953
	c3.7099609,0,4.8144531,3.0820312,4.8144531,6.4501953C-340.7646484,296.2993164-341.8691406,299.378418-345.5791016,299.378418z
	 M-362.8540039,294.1621094h1.0678711c0.7792969,0,1.253418,0.3427734,1.253418,1.1074219v0.9072266
	c0,1.7949219-1.1030273,3.0478516-3.4995117,3.0478516c-3.0043945,0-4.5004883-2.7045898-4.5004883-6.2988281
	c0-3.5395508,1.5029297-6.253418,4.4091797-6.253418c3.0332031,0,4.0668945,2.8271484,4.4111328,3.7788086h1.9404297v-5.3491211
	h-1.6499023l-0.5878906,1.2880859c-0.3374023-0.3115234-1.8022461-1.7543945-4.6987305-1.7543945
	c-4.6240234,0-7.5302734,3.5214844-7.5302734,8.2900391c0,4.8066406,2.9536133,8.3105469,7.5302734,8.3105469
	c2.9477539,0,4.5473633-1.3413086,4.9052734-1.6782227l0.8818359,1.2011719h1.6044922v-5.4282227
	c0-0.9238281,0.340332-1.1689453,1.253418-1.1689453h0.4394531v-1.75h-7.2299805V294.1621094z M-410.6674805,286.8457031
	c3.4619141,0,3.8232422,1.7436523,4.0556641,3.6054688h1.6933594v-5.3491211h-14.809082v1.7436523h1.5625
	c0.7070312,0,1.1049805,0.3217773,1.1049805,0.8959961v10.1000977c0,0.6611328-0.355957,1.1494141-1.1914062,1.1494141h-1.4760742
	v1.7680664h8.6499023v-1.7680664h-1.1801758c-1.0913086,0-1.4975586-0.3242188-1.4975586-1.2050781v-4.2636719h0.9711914
	c1.4702148,0,2.1049805,0.6396484,2.1049805,2.2949219v0.5151367h1.6416016v-7.1870117h-1.6416016v0.3022461
	c0,1.2163086-0.4433594,2.3325195-1.9628906,2.3325195h-1.1132812v-4.9345703H-410.6674805z M-374.5717773,297.5043945
	c0,1.0493164-0.300293,1.4868164-0.8564453,1.4868164c-0.5688477,0-0.9086914-0.3515625-0.9086914-1.9604492v-0.9145508
	c0-2.4057617-1.394043-3.0893555-3.050293-3.2128906v-0.0395508c1.4086914-0.0737305,4.4282227-0.6694336,4.4282227-3.6967773
	c0-2.4472656-1.6000977-4.0649414-5.0117188-4.0649414h-10.2744141v1.7436523h1.6396484
	c0.7353516,0,0.9731445,0.2241211,0.9731445,0.8554688v10.4501953c0,0.6191406-0.2983398,0.8398438-0.9731445,0.8398438h-0.6362305
	c-1.25,0-2.046875-0.1586914-2.480957-1.2661133l-5.1069336-12.6230469h-3.0048828l-4.9912109,12.6230469
	c-0.4448242,1.0957031-1.2387695,1.2661133-2.4775391,1.2661133v1.7680664h7.362793v-1.7680664h-1.6689453
	c-0.4580078,0-0.7333984-0.1083984-0.7333984-0.4375c0-0.2285156,0.0512695-0.4238281,0.1333008-0.6557617
	c0.1210938-0.2958984,0.8032227-2.1733398,0.8032227-2.1733398h5.5844727c0,0,0.7446289,2.0219727,0.8198242,2.2304688
	c0.0913086,0.2583008,0.1420898,0.4956055,0.1420898,0.6391602c0,0.2871094-0.1757812,0.3969727-0.6513672,0.3969727h-1.7446289
	v1.7680664h15.6225586v-1.7680664h-1.7182617c-0.6777344,0-0.9711914-0.2207031-0.9711914-0.8398438v-4.7299805h1.2387695
	c2.6225586,0,3.7680664,1.0834961,3.7680664,3.7866211c0,0,0,0.7768555,0,0.8066406
	c0,2.1279297,0.7680664,3.2216797,3.0507812,3.2216797c1.9555664,0,3.246582-1.0307617,3.246582-3.7319336v-0.4272461h-1.5532227
	V297.5043945z M-400.7524414,293.9902344l2.1137695-5.6904297h0.0629883l2.1147461,5.6904297H-400.7524414z
	 M-381.4111328,291.6777344h-2.9116211v-4.8320312h2.9116211c2.1831055,0,3.1650391,1.0424805,3.1650391,2.4165039
	C-378.2460938,290.769043-379.3984375,291.6777344-381.4111328,291.6777344z"/>
</svg>
